<mxfile host="app.diagrams.net" modified="2024-04-22T07:36:09.986Z" agent="Mozilla/5.0 (Macintosh; Intel Mac OS X 10_15_7) AppleWebKit/605.1.15 (KHTML, like Gecko) Version/17.4.1 Safari/605.1.15" etag="IyPRa59TLKUHm7L_YdvH" version="24.2.7" type="github">
  <diagram name="Seite-1" id="DcJaAp8AqNkdIVNIZED9">
    <mxGraphModel dx="2341" dy="1025" grid="1" gridSize="10" guides="1" tooltips="1" connect="1" arrows="1" fold="1" page="1" pageScale="1" pageWidth="827" pageHeight="1169" math="0" shadow="0">
      <root>
        <mxCell id="0" />
        <mxCell id="1" parent="0" />
        <mxCell id="TaajAtaos5vdGKLNvDbs-58" style="edgeStyle=orthogonalEdgeStyle;rounded=0;orthogonalLoop=1;jettySize=auto;html=1;exitX=0.5;exitY=1;exitDx=0;exitDy=0;entryX=0.5;entryY=0;entryDx=0;entryDy=0;" edge="1" parent="1" source="TaajAtaos5vdGKLNvDbs-1" target="TaajAtaos5vdGKLNvDbs-2">
          <mxGeometry relative="1" as="geometry" />
        </mxCell>
        <mxCell id="TaajAtaos5vdGKLNvDbs-1" value="Bestellung eingegangen" style="shape=hexagon;perimeter=hexagonPerimeter2;whiteSpace=wrap;html=1;fixedSize=1;" vertex="1" parent="1">
          <mxGeometry x="240" y="90" width="200" height="80" as="geometry" />
        </mxCell>
        <mxCell id="TaajAtaos5vdGKLNvDbs-59" style="edgeStyle=orthogonalEdgeStyle;rounded=0;orthogonalLoop=1;jettySize=auto;html=1;exitX=0.5;exitY=1;exitDx=0;exitDy=0;entryX=0.5;entryY=0;entryDx=0;entryDy=0;" edge="1" parent="1" source="TaajAtaos5vdGKLNvDbs-2" target="TaajAtaos5vdGKLNvDbs-4">
          <mxGeometry relative="1" as="geometry" />
        </mxCell>
        <mxCell id="TaajAtaos5vdGKLNvDbs-2" value="Art der Bestellung finden" style="rounded=0;whiteSpace=wrap;html=1;" vertex="1" parent="1">
          <mxGeometry x="260" y="210" width="160" height="60" as="geometry" />
        </mxCell>
        <mxCell id="TaajAtaos5vdGKLNvDbs-60" style="edgeStyle=orthogonalEdgeStyle;rounded=0;orthogonalLoop=1;jettySize=auto;html=1;exitX=0.5;exitY=1;exitDx=0;exitDy=0;entryX=0.5;entryY=0;entryDx=0;entryDy=0;" edge="1" parent="1" source="TaajAtaos5vdGKLNvDbs-4" target="TaajAtaos5vdGKLNvDbs-6">
          <mxGeometry relative="1" as="geometry" />
        </mxCell>
        <mxCell id="TaajAtaos5vdGKLNvDbs-61" style="edgeStyle=orthogonalEdgeStyle;rounded=0;orthogonalLoop=1;jettySize=auto;html=1;exitX=0;exitY=0.5;exitDx=0;exitDy=0;entryX=0.5;entryY=0;entryDx=0;entryDy=0;" edge="1" parent="1" source="TaajAtaos5vdGKLNvDbs-4" target="TaajAtaos5vdGKLNvDbs-5">
          <mxGeometry relative="1" as="geometry" />
        </mxCell>
        <mxCell id="TaajAtaos5vdGKLNvDbs-62" style="edgeStyle=orthogonalEdgeStyle;rounded=0;orthogonalLoop=1;jettySize=auto;html=1;exitX=1;exitY=0.5;exitDx=0;exitDy=0;entryX=0.5;entryY=0;entryDx=0;entryDy=0;" edge="1" parent="1" source="TaajAtaos5vdGKLNvDbs-4" target="TaajAtaos5vdGKLNvDbs-7">
          <mxGeometry relative="1" as="geometry" />
        </mxCell>
        <mxCell id="TaajAtaos5vdGKLNvDbs-4" value="" style="shape=sumEllipse;perimeter=ellipsePerimeter;whiteSpace=wrap;html=1;backgroundOutline=1;" vertex="1" parent="1">
          <mxGeometry x="300" y="290" width="80" height="80" as="geometry" />
        </mxCell>
        <mxCell id="TaajAtaos5vdGKLNvDbs-18" style="edgeStyle=orthogonalEdgeStyle;rounded=0;orthogonalLoop=1;jettySize=auto;html=1;exitX=0.5;exitY=1;exitDx=0;exitDy=0;entryX=0.5;entryY=0;entryDx=0;entryDy=0;" edge="1" parent="1" source="TaajAtaos5vdGKLNvDbs-5" target="TaajAtaos5vdGKLNvDbs-17">
          <mxGeometry relative="1" as="geometry" />
        </mxCell>
        <mxCell id="TaajAtaos5vdGKLNvDbs-5" value="Telefonbestellung" style="shape=hexagon;perimeter=hexagonPerimeter2;whiteSpace=wrap;html=1;fixedSize=1;" vertex="1" parent="1">
          <mxGeometry x="-40" y="400" width="200" height="70" as="geometry" />
        </mxCell>
        <mxCell id="TaajAtaos5vdGKLNvDbs-13" style="edgeStyle=orthogonalEdgeStyle;rounded=0;orthogonalLoop=1;jettySize=auto;html=1;exitX=0.5;exitY=1;exitDx=0;exitDy=0;entryX=0.5;entryY=0;entryDx=0;entryDy=0;" edge="1" parent="1" source="TaajAtaos5vdGKLNvDbs-6" target="TaajAtaos5vdGKLNvDbs-8">
          <mxGeometry relative="1" as="geometry" />
        </mxCell>
        <mxCell id="TaajAtaos5vdGKLNvDbs-6" value="schriftliche Bestellung" style="shape=hexagon;perimeter=hexagonPerimeter2;whiteSpace=wrap;html=1;fixedSize=1;" vertex="1" parent="1">
          <mxGeometry x="240" y="400" width="200" height="70" as="geometry" />
        </mxCell>
        <mxCell id="TaajAtaos5vdGKLNvDbs-53" style="edgeStyle=orthogonalEdgeStyle;rounded=0;orthogonalLoop=1;jettySize=auto;html=1;exitX=0.5;exitY=1;exitDx=0;exitDy=0;entryX=1;entryY=0.5;entryDx=0;entryDy=0;" edge="1" parent="1" source="TaajAtaos5vdGKLNvDbs-7" target="TaajAtaos5vdGKLNvDbs-50">
          <mxGeometry relative="1" as="geometry" />
        </mxCell>
        <mxCell id="TaajAtaos5vdGKLNvDbs-7" value="elektronische Bestellung" style="shape=hexagon;perimeter=hexagonPerimeter2;whiteSpace=wrap;html=1;fixedSize=1;" vertex="1" parent="1">
          <mxGeometry x="510" y="400" width="200" height="70" as="geometry" />
        </mxCell>
        <mxCell id="TaajAtaos5vdGKLNvDbs-14" style="edgeStyle=orthogonalEdgeStyle;rounded=0;orthogonalLoop=1;jettySize=auto;html=1;exitX=0.5;exitY=1;exitDx=0;exitDy=0;" edge="1" parent="1" source="TaajAtaos5vdGKLNvDbs-8" target="TaajAtaos5vdGKLNvDbs-11">
          <mxGeometry relative="1" as="geometry" />
        </mxCell>
        <mxCell id="TaajAtaos5vdGKLNvDbs-8" value="Bestellschein Einscannen &amp;amp; elektronisch Ablegen" style="rounded=0;whiteSpace=wrap;html=1;" vertex="1" parent="1">
          <mxGeometry x="260" y="510" width="160" height="60" as="geometry" />
        </mxCell>
        <mxCell id="TaajAtaos5vdGKLNvDbs-15" style="edgeStyle=orthogonalEdgeStyle;rounded=0;orthogonalLoop=1;jettySize=auto;html=1;exitX=0.5;exitY=1;exitDx=0;exitDy=0;entryX=0.5;entryY=0;entryDx=0;entryDy=0;" edge="1" parent="1" source="TaajAtaos5vdGKLNvDbs-11" target="TaajAtaos5vdGKLNvDbs-12">
          <mxGeometry relative="1" as="geometry" />
        </mxCell>
        <mxCell id="TaajAtaos5vdGKLNvDbs-11" value="abgeschlossen" style="shape=hexagon;perimeter=hexagonPerimeter2;whiteSpace=wrap;html=1;fixedSize=1;" vertex="1" parent="1">
          <mxGeometry x="240" y="610" width="200" height="70" as="geometry" />
        </mxCell>
        <mxCell id="TaajAtaos5vdGKLNvDbs-22" style="edgeStyle=orthogonalEdgeStyle;rounded=0;orthogonalLoop=1;jettySize=auto;html=1;exitX=0.5;exitY=1;exitDx=0;exitDy=0;entryX=0.5;entryY=0;entryDx=0;entryDy=0;" edge="1" parent="1" source="TaajAtaos5vdGKLNvDbs-12" target="TaajAtaos5vdGKLNvDbs-21">
          <mxGeometry relative="1" as="geometry" />
        </mxCell>
        <mxCell id="TaajAtaos5vdGKLNvDbs-12" value="Prüfung, ob Kundendaten bereits im System" style="rounded=0;whiteSpace=wrap;html=1;" vertex="1" parent="1">
          <mxGeometry x="260" y="720" width="160" height="60" as="geometry" />
        </mxCell>
        <mxCell id="TaajAtaos5vdGKLNvDbs-36" style="edgeStyle=orthogonalEdgeStyle;rounded=0;orthogonalLoop=1;jettySize=auto;html=1;exitX=0.5;exitY=1;exitDx=0;exitDy=0;entryX=0.5;entryY=0;entryDx=0;entryDy=0;" edge="1" parent="1" source="TaajAtaos5vdGKLNvDbs-17" target="TaajAtaos5vdGKLNvDbs-31">
          <mxGeometry relative="1" as="geometry" />
        </mxCell>
        <mxCell id="TaajAtaos5vdGKLNvDbs-17" value="Prüfung, ob Kundendaten bereits im System" style="rounded=0;whiteSpace=wrap;html=1;" vertex="1" parent="1">
          <mxGeometry x="-20" y="510" width="160" height="60" as="geometry" />
        </mxCell>
        <mxCell id="TaajAtaos5vdGKLNvDbs-25" style="edgeStyle=orthogonalEdgeStyle;rounded=0;orthogonalLoop=1;jettySize=auto;html=1;exitX=1;exitY=0.5;exitDx=0;exitDy=0;" edge="1" parent="1" source="TaajAtaos5vdGKLNvDbs-21" target="TaajAtaos5vdGKLNvDbs-24">
          <mxGeometry relative="1" as="geometry" />
        </mxCell>
        <mxCell id="TaajAtaos5vdGKLNvDbs-26" style="edgeStyle=orthogonalEdgeStyle;rounded=0;orthogonalLoop=1;jettySize=auto;html=1;exitX=0;exitY=0.5;exitDx=0;exitDy=0;entryX=0.5;entryY=0;entryDx=0;entryDy=0;" edge="1" parent="1" source="TaajAtaos5vdGKLNvDbs-21" target="TaajAtaos5vdGKLNvDbs-23">
          <mxGeometry relative="1" as="geometry" />
        </mxCell>
        <mxCell id="TaajAtaos5vdGKLNvDbs-21" value="" style="shape=sumEllipse;perimeter=ellipsePerimeter;whiteSpace=wrap;html=1;backgroundOutline=1;" vertex="1" parent="1">
          <mxGeometry x="300" y="850" width="80" height="80" as="geometry" />
        </mxCell>
        <mxCell id="TaajAtaos5vdGKLNvDbs-45" style="edgeStyle=orthogonalEdgeStyle;rounded=0;orthogonalLoop=1;jettySize=auto;html=1;exitX=0.5;exitY=1;exitDx=0;exitDy=0;entryX=0;entryY=0.5;entryDx=0;entryDy=0;" edge="1" parent="1" source="TaajAtaos5vdGKLNvDbs-23" target="TaajAtaos5vdGKLNvDbs-44">
          <mxGeometry relative="1" as="geometry" />
        </mxCell>
        <mxCell id="TaajAtaos5vdGKLNvDbs-23" value="Daten in System" style="shape=hexagon;perimeter=hexagonPerimeter2;whiteSpace=wrap;html=1;fixedSize=1;" vertex="1" parent="1">
          <mxGeometry x="200" y="960" width="130" height="70" as="geometry" />
        </mxCell>
        <mxCell id="TaajAtaos5vdGKLNvDbs-28" style="edgeStyle=orthogonalEdgeStyle;rounded=0;orthogonalLoop=1;jettySize=auto;html=1;exitX=0.5;exitY=1;exitDx=0;exitDy=0;entryX=0.5;entryY=0;entryDx=0;entryDy=0;" edge="1" parent="1" source="TaajAtaos5vdGKLNvDbs-24" target="TaajAtaos5vdGKLNvDbs-27">
          <mxGeometry relative="1" as="geometry" />
        </mxCell>
        <mxCell id="TaajAtaos5vdGKLNvDbs-24" value="Daten nicht in System" style="shape=hexagon;perimeter=hexagonPerimeter2;whiteSpace=wrap;html=1;fixedSize=1;" vertex="1" parent="1">
          <mxGeometry x="340" y="960" width="130" height="70" as="geometry" />
        </mxCell>
        <mxCell id="TaajAtaos5vdGKLNvDbs-41" style="edgeStyle=orthogonalEdgeStyle;rounded=0;orthogonalLoop=1;jettySize=auto;html=1;exitX=0.5;exitY=1;exitDx=0;exitDy=0;entryX=0.5;entryY=0;entryDx=0;entryDy=0;" edge="1" parent="1" source="TaajAtaos5vdGKLNvDbs-27" target="TaajAtaos5vdGKLNvDbs-40">
          <mxGeometry relative="1" as="geometry" />
        </mxCell>
        <mxCell id="TaajAtaos5vdGKLNvDbs-27" value="Kundendaten anlegen" style="rounded=0;whiteSpace=wrap;html=1;" vertex="1" parent="1">
          <mxGeometry x="340" y="1060" width="130" height="60" as="geometry" />
        </mxCell>
        <mxCell id="TaajAtaos5vdGKLNvDbs-29" style="edgeStyle=orthogonalEdgeStyle;rounded=0;orthogonalLoop=1;jettySize=auto;html=1;exitX=1;exitY=0.5;exitDx=0;exitDy=0;" edge="1" parent="1" source="TaajAtaos5vdGKLNvDbs-31" target="TaajAtaos5vdGKLNvDbs-34">
          <mxGeometry relative="1" as="geometry" />
        </mxCell>
        <mxCell id="TaajAtaos5vdGKLNvDbs-30" style="edgeStyle=orthogonalEdgeStyle;rounded=0;orthogonalLoop=1;jettySize=auto;html=1;exitX=0;exitY=0.5;exitDx=0;exitDy=0;entryX=0.5;entryY=0;entryDx=0;entryDy=0;" edge="1" parent="1" source="TaajAtaos5vdGKLNvDbs-31" target="TaajAtaos5vdGKLNvDbs-32">
          <mxGeometry relative="1" as="geometry" />
        </mxCell>
        <mxCell id="TaajAtaos5vdGKLNvDbs-31" value="" style="shape=sumEllipse;perimeter=ellipsePerimeter;whiteSpace=wrap;html=1;backgroundOutline=1;" vertex="1" parent="1">
          <mxGeometry x="20" y="630" width="80" height="80" as="geometry" />
        </mxCell>
        <mxCell id="TaajAtaos5vdGKLNvDbs-49" style="edgeStyle=orthogonalEdgeStyle;rounded=0;orthogonalLoop=1;jettySize=auto;html=1;exitX=0.5;exitY=1;exitDx=0;exitDy=0;entryX=0;entryY=0.5;entryDx=0;entryDy=0;" edge="1" parent="1" source="TaajAtaos5vdGKLNvDbs-32" target="TaajAtaos5vdGKLNvDbs-47">
          <mxGeometry relative="1" as="geometry" />
        </mxCell>
        <mxCell id="TaajAtaos5vdGKLNvDbs-32" value="Daten in System" style="shape=hexagon;perimeter=hexagonPerimeter2;whiteSpace=wrap;html=1;fixedSize=1;" vertex="1" parent="1">
          <mxGeometry x="-80" y="740" width="130" height="70" as="geometry" />
        </mxCell>
        <mxCell id="TaajAtaos5vdGKLNvDbs-33" style="edgeStyle=orthogonalEdgeStyle;rounded=0;orthogonalLoop=1;jettySize=auto;html=1;exitX=0.5;exitY=1;exitDx=0;exitDy=0;entryX=0.5;entryY=0;entryDx=0;entryDy=0;" edge="1" parent="1" source="TaajAtaos5vdGKLNvDbs-34" target="TaajAtaos5vdGKLNvDbs-35">
          <mxGeometry relative="1" as="geometry" />
        </mxCell>
        <mxCell id="TaajAtaos5vdGKLNvDbs-34" value="Daten nicht in System" style="shape=hexagon;perimeter=hexagonPerimeter2;whiteSpace=wrap;html=1;fixedSize=1;" vertex="1" parent="1">
          <mxGeometry x="60" y="740" width="130" height="70" as="geometry" />
        </mxCell>
        <mxCell id="TaajAtaos5vdGKLNvDbs-43" style="edgeStyle=orthogonalEdgeStyle;rounded=0;orthogonalLoop=1;jettySize=auto;html=1;exitX=0.5;exitY=1;exitDx=0;exitDy=0;entryX=0.5;entryY=0;entryDx=0;entryDy=0;" edge="1" parent="1" source="TaajAtaos5vdGKLNvDbs-35" target="TaajAtaos5vdGKLNvDbs-42">
          <mxGeometry relative="1" as="geometry" />
        </mxCell>
        <mxCell id="TaajAtaos5vdGKLNvDbs-35" value="Kundendaten anlegen" style="rounded=0;whiteSpace=wrap;html=1;" vertex="1" parent="1">
          <mxGeometry x="60" y="840" width="130" height="60" as="geometry" />
        </mxCell>
        <mxCell id="TaajAtaos5vdGKLNvDbs-46" style="edgeStyle=orthogonalEdgeStyle;rounded=0;orthogonalLoop=1;jettySize=auto;html=1;exitX=0.5;exitY=1;exitDx=0;exitDy=0;entryX=1;entryY=0.5;entryDx=0;entryDy=0;" edge="1" parent="1" source="TaajAtaos5vdGKLNvDbs-40" target="TaajAtaos5vdGKLNvDbs-44">
          <mxGeometry relative="1" as="geometry" />
        </mxCell>
        <mxCell id="TaajAtaos5vdGKLNvDbs-40" value="Daten in System" style="shape=hexagon;perimeter=hexagonPerimeter2;whiteSpace=wrap;html=1;fixedSize=1;" vertex="1" parent="1">
          <mxGeometry x="340" y="1150" width="130" height="70" as="geometry" />
        </mxCell>
        <mxCell id="TaajAtaos5vdGKLNvDbs-48" style="edgeStyle=orthogonalEdgeStyle;rounded=0;orthogonalLoop=1;jettySize=auto;html=1;exitX=0.5;exitY=1;exitDx=0;exitDy=0;entryX=1;entryY=0.5;entryDx=0;entryDy=0;" edge="1" parent="1" source="TaajAtaos5vdGKLNvDbs-42" target="TaajAtaos5vdGKLNvDbs-47">
          <mxGeometry relative="1" as="geometry" />
        </mxCell>
        <mxCell id="TaajAtaos5vdGKLNvDbs-42" value="Daten in System" style="shape=hexagon;perimeter=hexagonPerimeter2;whiteSpace=wrap;html=1;fixedSize=1;" vertex="1" parent="1">
          <mxGeometry x="60" y="960" width="130" height="70" as="geometry" />
        </mxCell>
        <mxCell id="TaajAtaos5vdGKLNvDbs-51" style="edgeStyle=orthogonalEdgeStyle;rounded=0;orthogonalLoop=1;jettySize=auto;html=1;exitX=0.5;exitY=1;exitDx=0;exitDy=0;" edge="1" parent="1" source="TaajAtaos5vdGKLNvDbs-44" target="TaajAtaos5vdGKLNvDbs-50">
          <mxGeometry relative="1" as="geometry" />
        </mxCell>
        <mxCell id="TaajAtaos5vdGKLNvDbs-44" value="" style="shape=sumEllipse;perimeter=ellipsePerimeter;whiteSpace=wrap;html=1;backgroundOutline=1;" vertex="1" parent="1">
          <mxGeometry x="300" y="1270" width="80" height="80" as="geometry" />
        </mxCell>
        <mxCell id="TaajAtaos5vdGKLNvDbs-52" style="edgeStyle=orthogonalEdgeStyle;rounded=0;orthogonalLoop=1;jettySize=auto;html=1;exitX=0.5;exitY=1;exitDx=0;exitDy=0;entryX=0;entryY=0.5;entryDx=0;entryDy=0;" edge="1" parent="1" source="TaajAtaos5vdGKLNvDbs-47" target="TaajAtaos5vdGKLNvDbs-50">
          <mxGeometry relative="1" as="geometry" />
        </mxCell>
        <mxCell id="TaajAtaos5vdGKLNvDbs-47" value="" style="shape=sumEllipse;perimeter=ellipsePerimeter;whiteSpace=wrap;html=1;backgroundOutline=1;" vertex="1" parent="1">
          <mxGeometry x="10" y="1050" width="80" height="80" as="geometry" />
        </mxCell>
        <mxCell id="TaajAtaos5vdGKLNvDbs-55" style="edgeStyle=orthogonalEdgeStyle;rounded=0;orthogonalLoop=1;jettySize=auto;html=1;exitX=0.5;exitY=1;exitDx=0;exitDy=0;entryX=0.5;entryY=0;entryDx=0;entryDy=0;" edge="1" parent="1" source="TaajAtaos5vdGKLNvDbs-50" target="TaajAtaos5vdGKLNvDbs-54">
          <mxGeometry relative="1" as="geometry" />
        </mxCell>
        <mxCell id="TaajAtaos5vdGKLNvDbs-50" value="" style="shape=sumEllipse;perimeter=ellipsePerimeter;whiteSpace=wrap;html=1;backgroundOutline=1;" vertex="1" parent="1">
          <mxGeometry x="300" y="1430" width="80" height="80" as="geometry" />
        </mxCell>
        <mxCell id="TaajAtaos5vdGKLNvDbs-57" style="edgeStyle=orthogonalEdgeStyle;rounded=0;orthogonalLoop=1;jettySize=auto;html=1;exitX=0.5;exitY=1;exitDx=0;exitDy=0;entryX=0.5;entryY=0;entryDx=0;entryDy=0;" edge="1" parent="1" source="TaajAtaos5vdGKLNvDbs-54" target="TaajAtaos5vdGKLNvDbs-56">
          <mxGeometry relative="1" as="geometry" />
        </mxCell>
        <mxCell id="TaajAtaos5vdGKLNvDbs-54" value="Ware wird kommissioniert&amp;nbsp;" style="rounded=0;whiteSpace=wrap;html=1;" vertex="1" parent="1">
          <mxGeometry x="275" y="1550" width="130" height="60" as="geometry" />
        </mxCell>
        <mxCell id="TaajAtaos5vdGKLNvDbs-56" value="Ware wurde Kommissioniert" style="shape=hexagon;perimeter=hexagonPerimeter2;whiteSpace=wrap;html=1;fixedSize=1;" vertex="1" parent="1">
          <mxGeometry x="275" y="1660" width="130" height="70" as="geometry" />
        </mxCell>
      </root>
    </mxGraphModel>
  </diagram>
</mxfile>
